<?xml version="1.0" encoding="UTF-8"?>
<svg version="1.1" xmlns="http://www.w3.org/2000/svg" width="512" height="512">
<path d="M0 0 C1.01790619 0.00215515 2.03581238 0.0043103 3.08456421 0.00653076 C17.69363523 0.05620146 32.02575853 0.30709809 46.375 3.3125 C47.34985352 3.51117676 48.32470703 3.70985352 49.32910156 3.91455078 C97.7109774 14.03517194 141.69928269 35.9516877 177.375 70.3125 C178.3640332 71.26068604 178.3640332 71.26068604 179.37304688 72.22802734 C188.86130305 81.37247479 197.6012044 90.66984009 205.375 101.3125 C206.23306152 102.46355017 207.09113451 103.61459177 207.94921875 104.765625 C213.98736829 112.95680614 219.34595521 121.47054105 224.375 130.3125 C224.73948242 130.94430176 225.10396484 131.57610352 225.47949219 132.22705078 C247.08534998 169.97532572 256.85198095 212.74189997 256.6875 255.9375 C256.68534485 256.95540619 256.6831897 257.97331238 256.68096924 259.02206421 C256.63129854 273.63113523 256.38040191 287.96325853 253.375 302.3125 C253.07698486 303.77478027 253.07698486 303.77478027 252.77294922 305.26660156 C242.65232806 353.6484774 220.7358123 397.63678269 186.375 433.3125 C185.74287598 433.97185547 185.11075195 434.63121094 184.45947266 435.31054688 C175.31502521 444.79880305 166.01765991 453.5387044 155.375 461.3125 C154.22394983 462.17056152 153.07290823 463.02863451 151.921875 463.88671875 C143.73224019 469.92427396 135.22961724 475.30707302 126.375 480.3125 C125.66778809 480.7146875 124.96057617 481.116875 124.23193359 481.53125 C101.09654164 494.5566741 75.92537591 503.30551461 49.9375 508.625 C49.21860596 508.77235596 48.49971191 508.91971191 47.7590332 509.0715332 C33.08339502 511.86090125 18.55831162 512.66142619 3.64770508 512.62817383 C0.70811513 512.6250221 -2.2304558 512.64854926 -5.16992188 512.67382812 C-18.54306192 512.71848737 -31.43916711 511.51301542 -44.625 509.3125 C-46.33055054 509.03031616 -46.33055054 509.03031616 -48.07055664 508.74243164 C-91.33802759 500.97044532 -132.38793216 480.98345309 -165.625 452.3125 C-166.37007813 451.67828125 -167.11515625 451.0440625 -167.8828125 450.390625 C-181.38779833 438.57948485 -194.05918743 425.82889772 -204.625 411.3125 C-205.48149066 410.16255169 -206.33826433 409.01281411 -207.1953125 407.86328125 C-213.23534209 399.67315742 -218.61867614 391.16870382 -223.625 382.3125 C-224.0271875 381.60528809 -224.429375 380.89807617 -224.84375 380.16943359 C-237.8691741 357.03404164 -246.61801461 331.86287591 -251.9375 305.875 C-252.08485596 305.15610596 -252.23221191 304.43721191 -252.3840332 303.6965332 C-255.35789088 288.05024391 -255.99800362 272.57681954 -255.9375 256.6875 C-255.93534485 255.66959381 -255.9331897 254.65168762 -255.93096924 253.60293579 C-255.88129854 238.99386477 -255.63040191 224.66174147 -252.625 210.3125 C-252.42632324 209.33764648 -252.22764648 208.36279297 -252.02294922 207.35839844 C-241.90232806 158.9765226 -219.9858123 114.98821731 -185.625 79.3125 C-184.99287598 78.65314453 -184.36075195 77.99378906 -183.70947266 77.31445312 C-174.56502521 67.82619695 -165.26765991 59.0862956 -154.625 51.3125 C-153.47394983 50.45443848 -152.32290823 49.59636549 -151.171875 48.73828125 C-142.98224019 42.70072604 -134.47961724 37.31792698 -125.625 32.3125 C-124.91778809 31.9103125 -124.21057617 31.508125 -123.48193359 31.09375 C-100.34654164 18.0683259 -75.17537591 9.31948539 -49.1875 4 C-48.46860596 3.85264404 -47.74971191 3.70528809 -47.0090332 3.5534668 C-31.36274391 0.57960912 -15.88931954 -0.06050362 0 0 Z " fill="#7D7DDC" transform="translate(255.625,-0.3125)"/>
<path d="M0 0 C1.25001549 -0.00744736 1.25001549 -0.00744736 2.52528381 -0.01504517 C5.27817624 -0.0296273 8.03101086 -0.03646569 10.78393555 -0.04199219 C11.73024527 -0.04481956 12.67655499 -0.04764694 13.65154076 -0.05056 C18.66906385 -0.06554441 23.68655831 -0.07477588 28.70410156 -0.07910156 C33.84678105 -0.08455477 38.98919155 -0.10851779 44.1317873 -0.13707352 C48.11879695 -0.15586312 52.10574427 -0.16091431 56.09279442 -0.16243744 C57.98589724 -0.16543281 59.8789998 -0.17335359 61.77205849 -0.18662262 C85.31991588 -0.33976254 108.71285712 2.87018489 126.4050293 19.93457031 C127.13206055 20.66933594 127.8590918 21.40410156 128.6081543 22.16113281 C129.54401367 23.04671875 129.54401367 23.04671875 130.4987793 23.95019531 C143.03793166 36.77176102 147.92594189 55.68496719 148.0456543 73.09863281 C147.76491063 93.55958227 143.33213238 111.90198017 129.3737793 127.50878906 C121.62971792 134.93565019 112.60804799 140.29623137 102.6081543 144.16113281 C101.7109668 144.51820313 100.8137793 144.87527344 99.8894043 145.24316406 C83.30579603 151.32533907 66.41638745 151.57116686 48.9831543 151.34863281 C46.8972266 151.33353856 44.81128818 151.31985866 42.7253418 151.30761719 C37.68600719 151.27503363 32.64720439 151.22352105 27.6081543 151.16113281 C27.61703674 151.8463652 27.62591919 152.5315976 27.6350708 153.2375946 C27.71582354 159.75271589 27.77642269 166.26769385 27.81540298 172.78320599 C27.83611876 176.13157049 27.86635707 179.47920187 27.90991211 182.82739258 C27.95890331 186.69265442 27.98123168 190.55733386 27.9987793 194.42285156 C28.01942444 195.60256027 28.04006958 196.78226898 28.06134033 197.99772644 C28.06439815 209.53776206 25.60996486 221.39976849 17.6081543 230.16113281 C9.55462945 236.86999372 1.90905854 238.76212934 -8.4934082 238.59863281 C-16.45426658 237.70522987 -22.9090945 234.14501597 -28.3918457 228.34863281 C-34.5269105 220.53764787 -36.54163185 212.47358888 -36.53901672 202.68649292 C-36.54269341 201.94269194 -36.5463701 201.19889096 -36.5501582 200.43255055 C-36.5611549 197.94477273 -36.56503205 195.45703673 -36.56884766 192.96923828 C-36.57511538 191.18341439 -36.58176245 189.3975918 -36.58876038 187.61177063 C-36.6097678 181.7506297 -36.6201602 175.88948862 -36.63012695 170.02832031 C-36.63417586 168.00746777 -36.63829282 165.98661536 -36.64247704 163.96576309 C-36.66152202 154.46970874 -36.67575408 144.97366212 -36.684089 135.47759235 C-36.69385684 124.53092307 -36.72016748 113.58445624 -36.7605899 102.63785827 C-36.79079172 94.1671656 -36.80556177 85.69653083 -36.80887002 77.22578537 C-36.81121598 72.17116245 -36.82011735 67.11675598 -36.84533119 62.06219101 C-36.86868792 57.30312711 -36.87281467 52.54442102 -36.86256981 47.78531456 C-36.86207617 46.04513162 -36.86834548 44.30493061 -36.88212585 42.56480217 C-36.97105829 30.66238139 -36.20489705 19.81254918 -28.3918457 10.16113281 C-20.27410062 2.23217249 -11.10741174 0.01592368 0 0 Z " fill="#C694FF" transform="translate(206.391845703125,146.8388671875)"/>
<path d="M0 0 C1.01790619 0.00215515 2.03581238 0.0043103 3.08456421 0.00653076 C17.69363523 0.05620146 32.02575853 0.30709809 46.375 3.3125 C47.34985352 3.51117676 48.32470703 3.70985352 49.32910156 3.91455078 C97.7109774 14.03517194 141.69928269 35.9516877 177.375 70.3125 C178.3640332 71.26068604 178.3640332 71.26068604 179.37304688 72.22802734 C188.86130305 81.37247479 197.6012044 90.66984009 205.375 101.3125 C206.23306152 102.46355017 207.09113451 103.61459177 207.94921875 104.765625 C213.98736829 112.95680614 219.34595521 121.47054105 224.375 130.3125 C224.73948242 130.94430176 225.10396484 131.57610352 225.47949219 132.22705078 C247.08534998 169.97532572 256.85198095 212.74189997 256.6875 255.9375 C256.68534485 256.95540619 256.6831897 257.97331238 256.68096924 259.02206421 C256.63129854 273.63113523 256.38040191 287.96325853 253.375 302.3125 C253.07698486 303.77478027 253.07698486 303.77478027 252.77294922 305.26660156 C242.65232806 353.6484774 220.7358123 397.63678269 186.375 433.3125 C185.74287598 433.97185547 185.11075195 434.63121094 184.45947266 435.31054688 C175.31502521 444.79880305 166.01765991 453.5387044 155.375 461.3125 C154.22394983 462.17056152 153.07290823 463.02863451 151.921875 463.88671875 C143.73224019 469.92427396 135.22961724 475.30707302 126.375 480.3125 C125.66778809 480.7146875 124.96057617 481.116875 124.23193359 481.53125 C101.09654164 494.5566741 75.92537591 503.30551461 49.9375 508.625 C49.21860596 508.77235596 48.49971191 508.91971191 47.7590332 509.0715332 C33.08339502 511.86090125 18.55831162 512.66142619 3.64770508 512.62817383 C0.70811513 512.6250221 -2.2304558 512.64854926 -5.16992188 512.67382812 C-18.54306192 512.71848737 -31.43916711 511.51301542 -44.625 509.3125 C-46.33055054 509.03031616 -46.33055054 509.03031616 -48.07055664 508.74243164 C-91.33802759 500.97044532 -132.38793216 480.98345309 -165.625 452.3125 C-166.37007813 451.67828125 -167.11515625 451.0440625 -167.8828125 450.390625 C-181.38779833 438.57948485 -194.05918743 425.82889772 -204.625 411.3125 C-205.48149066 410.16255169 -206.33826433 409.01281411 -207.1953125 407.86328125 C-213.23534209 399.67315742 -218.61867614 391.16870382 -223.625 382.3125 C-224.0271875 381.60528809 -224.429375 380.89807617 -224.84375 380.16943359 C-237.8691741 357.03404164 -246.61801461 331.86287591 -251.9375 305.875 C-252.08485596 305.15610596 -252.23221191 304.43721191 -252.3840332 303.6965332 C-255.35789088 288.05024391 -255.99800362 272.57681954 -255.9375 256.6875 C-255.93534485 255.66959381 -255.9331897 254.65168762 -255.93096924 253.60293579 C-255.88129854 238.99386477 -255.63040191 224.66174147 -252.625 210.3125 C-252.42632324 209.33764648 -252.22764648 208.36279297 -252.02294922 207.35839844 C-241.90232806 158.9765226 -219.9858123 114.98821731 -185.625 79.3125 C-184.99287598 78.65314453 -184.36075195 77.99378906 -183.70947266 77.31445312 C-174.56502521 67.82619695 -165.26765991 59.0862956 -154.625 51.3125 C-153.47394983 50.45443848 -152.32290823 49.59636549 -151.171875 48.73828125 C-142.98224019 42.70072604 -134.47961724 37.31792698 -125.625 32.3125 C-124.91778809 31.9103125 -124.21057617 31.508125 -123.48193359 31.09375 C-100.34654164 18.0683259 -75.17537591 9.31948539 -49.1875 4 C-48.46860596 3.85264404 -47.74971191 3.70528809 -47.0090332 3.5534668 C-31.36274391 0.57960912 -15.88931954 -0.06050362 0 0 Z M-42.625 20.3125 C-44.15737305 20.61849121 -44.15737305 20.61849121 -45.72070312 20.93066406 C-60.44597902 23.92896416 -74.63698668 27.81598977 -88.625 33.3125 C-89.2957959 33.5707959 -89.9665918 33.8290918 -90.65771484 34.09521484 C-138.75564665 52.86896261 -180.93382668 90.8346562 -206.625 135.3125 C-207.0478125 136.0353418 -207.470625 136.75818359 -207.90625 137.50292969 C-215.00227458 149.70426172 -220.87659829 162.02000771 -225.625 175.3125 C-225.93421387 176.17037109 -226.24342773 177.02824219 -226.56201172 177.91210938 C-247.53769715 237.07823514 -243.11493072 303.75103654 -216.3125 360.375 C-208.45737222 376.38397761 -199.00083691 391.57262198 -187.625 405.3125 C-187.18929687 405.8482666 -186.75359375 406.3840332 -186.3046875 406.93603516 C-174.87125121 420.96241146 -162.12655387 434.44111113 -147.625 445.3125 C-147.00641113 445.78574707 -146.38782227 446.25899414 -145.75048828 446.74658203 C-110.18261644 473.8631834 -68.83677507 489.63740661 -24.625 495.3125 C-23.58214844 495.4465625 -22.53929687 495.580625 -21.46484375 495.71875 C12.9115573 499.28004622 49.00679194 494.08698834 81.375 482.3125 C82.35847412 481.95720215 82.35847412 481.95720215 83.36181641 481.59472656 C93.39890969 477.90948808 102.929611 473.29884007 112.375 468.3125 C113.03113281 467.96848145 113.68726563 467.62446289 114.36328125 467.27001953 C142.37977683 452.4536036 167.78330883 431.20745929 187.375 406.3125 C188.14328125 405.37277344 188.9115625 404.43304688 189.703125 403.46484375 C222.59126997 362.35466253 239.56519507 310.6443249 239.56030273 258.30615234 C239.56247856 255.7130463 239.58066958 253.12037443 239.59960938 250.52734375 C239.65397039 234.96437695 238.38730976 219.85358556 234.75 204.6875 C234.35868896 203.04309937 234.35868896 203.04309937 233.95947266 201.36547852 C225.78941843 168.07095383 211.29897096 137.45866397 190.375 110.3125 C189.69824219 109.42175781 189.02148438 108.53101562 188.32421875 107.61328125 C160.48584705 71.82108906 122.39723632 45.05989103 79.66601562 30.11914062 C77.63512002 29.40408531 75.62172492 28.65588483 73.609375 27.890625 C65.88856627 25.08620569 58.10118235 23.26894566 50.0625 21.625 C49.07926758 21.42237549 48.09603516 21.21975098 47.08300781 21.01098633 C31.31431605 17.94399881 15.66221031 16.92836598 -0.375 17 C-1.68794037 17.00323273 -1.68794037 17.00323273 -3.02740479 17.00653076 C-16.43765358 17.05936429 -29.45444904 17.59806977 -42.625 20.3125 Z " fill="#C593FE" transform="translate(255.625,-0.3125)"/>
<path d="M0 0 C1.25001549 -0.00744736 1.25001549 -0.00744736 2.52528381 -0.01504517 C5.27817624 -0.0296273 8.03101086 -0.03646569 10.78393555 -0.04199219 C11.73024527 -0.04481956 12.67655499 -0.04764694 13.65154076 -0.05056 C18.66906385 -0.06554441 23.68655831 -0.07477588 28.70410156 -0.07910156 C33.84678105 -0.08455477 38.98919155 -0.10851779 44.1317873 -0.13707352 C48.11879695 -0.15586312 52.10574427 -0.16091431 56.09279442 -0.16243744 C57.98589724 -0.16543281 59.8789998 -0.17335359 61.77205849 -0.18662262 C85.31991588 -0.33976254 108.71285712 2.87018489 126.4050293 19.93457031 C127.13206055 20.66933594 127.8590918 21.40410156 128.6081543 22.16113281 C129.54401367 23.04671875 129.54401367 23.04671875 130.4987793 23.95019531 C143.03793166 36.77176102 147.92594189 55.68496719 148.0456543 73.09863281 C147.76491063 93.55958227 143.33213238 111.90198017 129.3737793 127.50878906 C121.62971792 134.93565019 112.60804799 140.29623137 102.6081543 144.16113281 C101.7109668 144.51820313 100.8137793 144.87527344 99.8894043 145.24316406 C83.30579603 151.32533907 66.41638745 151.57116686 48.9831543 151.34863281 C46.8972266 151.33353856 44.81128818 151.31985866 42.7253418 151.30761719 C37.68600719 151.27503363 32.64720439 151.22352105 27.6081543 151.16113281 C27.61703674 151.8463652 27.62591919 152.5315976 27.6350708 153.2375946 C27.71582354 159.75271589 27.77642269 166.26769385 27.81540298 172.78320599 C27.83611876 176.13157049 27.86635707 179.47920187 27.90991211 182.82739258 C27.95890331 186.69265442 27.98123168 190.55733386 27.9987793 194.42285156 C28.01942444 195.60256027 28.04006958 196.78226898 28.06134033 197.99772644 C28.06439815 209.53776206 25.60996486 221.39976849 17.6081543 230.16113281 C9.55462945 236.86999372 1.90905854 238.76212934 -8.4934082 238.59863281 C-16.45426658 237.70522987 -22.9090945 234.14501597 -28.3918457 228.34863281 C-34.5269105 220.53764787 -36.54163185 212.47358888 -36.53901672 202.68649292 C-36.54269341 201.94269194 -36.5463701 201.19889096 -36.5501582 200.43255055 C-36.5611549 197.94477273 -36.56503205 195.45703673 -36.56884766 192.96923828 C-36.57511538 191.18341439 -36.58176245 189.3975918 -36.58876038 187.61177063 C-36.6097678 181.7506297 -36.6201602 175.88948862 -36.63012695 170.02832031 C-36.63417586 168.00746777 -36.63829282 165.98661536 -36.64247704 163.96576309 C-36.66152202 154.46970874 -36.67575408 144.97366212 -36.684089 135.47759235 C-36.69385684 124.53092307 -36.72016748 113.58445624 -36.7605899 102.63785827 C-36.79079172 94.1671656 -36.80556177 85.69653083 -36.80887002 77.22578537 C-36.81121598 72.17116245 -36.82011735 67.11675598 -36.84533119 62.06219101 C-36.86868792 57.30312711 -36.87281467 52.54442102 -36.86256981 47.78531456 C-36.86207617 46.04513162 -36.86834548 44.30493061 -36.88212585 42.56480217 C-36.97105829 30.66238139 -36.20489705 19.81254918 -28.3918457 10.16113281 C-20.27410062 2.23217249 -11.10741174 0.01592368 0 0 Z M-21.3918457 17.16113281 C-25.51232798 22.9603301 -26.69098373 28.72250363 -26.65927124 35.73152161 C-26.66380235 36.47350459 -26.66833347 37.21548758 -26.67300189 37.9799549 C-26.68561855 40.45553207 -26.6840273 42.93088846 -26.68237305 45.40649414 C-26.68836002 47.18586 -26.69516595 48.96522327 -26.70272827 50.74458313 C-26.72037854 55.5711384 -26.72508325 60.39762274 -26.72635984 65.22420716 C-26.72778258 68.24183719 -26.7320545 71.25944925 -26.73735428 74.27707481 C-26.7558515 84.81078611 -26.76402529 95.34444683 -26.76245117 105.87817383 C-26.76124993 115.68707879 -26.78234966 125.49576366 -26.8139385 135.30461293 C-26.84011624 143.7345393 -26.85081783 152.16439384 -26.84954035 160.59436053 C-26.84903115 165.62541774 -26.85469125 170.6562793 -26.87589645 175.68729591 C-26.89530397 180.42094038 -26.89538611 185.15420308 -26.88086319 189.88786125 C-26.8787771 191.62081588 -26.88346406 193.35379457 -26.89558411 195.08670807 C-27.08418827 207.67069047 -27.08418827 207.67069047 -22.3918457 219.16113281 C-22.03379034 219.73829953 -21.67573498 220.31546625 -21.30682945 220.91012287 C-18.16399181 225.29669501 -14.51429872 227.07942807 -9.3918457 228.16113281 C-2.54894989 229.04233243 2.96600452 228.26230835 8.6081543 224.16113281 C14.60930635 218.90842376 17.26558811 212.66878129 17.86581421 204.77072144 C17.95465714 200.71870535 17.94623999 196.67817682 17.90112305 192.62597656 C17.89551736 191.13668752 17.89125186 189.6473929 17.88825989 188.15809631 C17.87688755 184.26673709 17.84748757 180.37572181 17.81414795 176.48449707 C17.78328141 172.50240733 17.76971936 168.52026121 17.75463867 164.53808594 C17.72260918 156.74561261 17.67150701 148.95342118 17.6081543 141.16113281 C18.21520203 141.16779465 18.82224976 141.17445648 19.44769287 141.18132019 C25.87384641 141.24866371 32.29989686 141.29333498 38.72631836 141.32592773 C41.11177656 141.34084086 43.49720822 141.3611785 45.88256836 141.38745117 C72.94387646 141.67763761 100.37386795 140.52370744 121.2956543 121.16113281 C133.70407797 108.61028202 137.93089153 91.25356655 138.1081543 74.09863281 C137.93605027 55.99204879 132.44987376 39.85328038 119.5222168 26.85644531 C109.34390589 17.44218992 97.01631733 12.47695785 83.34082031 11.04321289 C82.56242829 10.9599088 81.78403627 10.87660471 80.98205662 10.79077625 C72.14209897 9.9168106 63.32354682 9.85202506 54.44799805 9.86035156 C52.679244 9.85644941 50.91049087 9.85211172 49.14173889 9.84736633 C45.4736931 9.8399863 41.80574375 9.84013832 38.13769531 9.84545898 C33.45763969 9.851296 28.7779744 9.83418153 24.09798336 9.81111431 C20.46126536 9.79634462 16.82464131 9.79550876 13.18789864 9.79862404 C11.4620644 9.7981142 9.73622444 9.79294065 8.01041985 9.78281212 C-7.94784435 9.41246404 -7.94784435 9.41246404 -21.3918457 17.16113281 Z " fill="#FCFCFE" transform="translate(206.391845703125,146.8388671875)"/>
<path d="M0 0 C5.424375 -0.04125 10.84875 -0.0825 16.4375 -0.125 C18.13060303 -0.14320801 19.82370605 -0.16141602 21.56811523 -0.18017578 C43.12608966 -0.31624547 43.12608966 -0.31624547 51 6 C55.32083828 11.63177222 56.73379761 17.37467931 56.34765625 24.39453125 C55.60528821 29.95812096 54.19065843 34.19629664 50.1875 38.25 C40.04550094 45.77922888 27.12987961 45.5332936 15.125 45.25 C10.13375 45.1675 5.1425 45.085 0 45 C0 30.15 0 15.3 0 0 Z " fill="#7F7FDD" transform="translate(234,200)"/>
<path d="M0 0 C11.199375 -0.12375 11.199375 -0.12375 22.625 -0.25 C24.95127441 -0.28641602 27.27754883 -0.32283203 29.67431641 -0.36035156 C56.90560309 -0.60928924 56.90560309 -0.60928924 67.38671875 8.30078125 C74.57440734 15.87134914 76.48582909 24.32401265 76.3203125 34.57421875 C75.64471245 41.79984366 73.55860546 50.0265109 68 55 C52.65027851 65.34607713 37.66591086 65.28559796 19.75 65.125 C9.97375 65.063125 9.97375 65.063125 0 65 C0 43.55 0 22.1 0 0 Z M10 10 C10 24.85 10 39.7 10 55 C14.99125 55.0825 19.9825 55.165 25.125 55.25 C26.66816895 55.28641602 28.21133789 55.32283203 29.80126953 55.36035156 C40.33190521 55.44355526 51.39913576 54.77431592 60.1875 48.25 C64.89083839 43.48727602 66.13989186 38.17158135 66.5 31.625 C66.28296032 25.61467051 64.80752749 20.71691464 61 16 C53.38353794 10.40344426 45.08373168 9.83490719 35.87890625 9.90234375 C35.2175769 9.90335083 34.55624756 9.90435791 33.87487793 9.90539551 C31.43740063 9.9105724 28.99994831 9.92453302 26.5625 9.9375 C21.096875 9.958125 15.63125 9.97875 10 10 Z " fill="#FCFBFE" transform="translate(224,190)"/>
</svg>
